<svg xmlns="http://www.w3.org/2000/svg" width="0" height="0" style="position:absolute"><symbol id="android-bus" viewBox="0 0 512 512"><path d="M80 352c0 19.198 13.864 24.531 26.667 36.271v38.396c0 11.729 9.599 21.334 21.333 21.334h21.333c11.734 0 21.334-9.604 21.334-21.334v-21.333h170.666v21.333c0 11.729 9.604 21.334 21.334 21.334H384c11.729 0 21.333-9.604 21.333-21.334v-38.396C418.136 376.531 432 370.136 432 352V148.334C432 73.667 349.864 64 256 64S80 73.667 80 148.334V352zm80 15.989c-18.136 0-32-13.864-32-32 0-18.135 13.864-32 32-32s32 13.865 32 32c0 18.136-13.864 32-32 32zm192 0c-18.136 0-32-13.864-32-32 0-18.135 13.864-32 32-32s32 13.865 32 32c0 18.136-13.864 32-32 32zm32-122.656H128V138.667h256v106.666z"/></symbol><symbol id="android-walk" viewBox="0 0 512 512"><path d="M288 112c22.223 0 39.997-17.776 39.997-40 0-22.225-17.774-40-39.997-40s-40.003 17.775-40.003 40c0 22.224 17.78 40 40.003 40zm0 120h104v-40h-72l-44.802-69.333c-7.698-11.667-18.136-18.136-30.933-18.136-3.198 0-8.828.531-12.799 1.747L120 144v112h40v-80l40.531-16L120 480h40l56.698-164.271L267 384v96h38V352l-57.031-96 19.745-61.864L288 232z"/></symbol><symbol id="fork" viewBox="0 0 512 512"><path d="M270.2 148.9c0 .1-.1.1 0 0v.1-.1z"/><path d="M320 166c0-43.2-15-93.2-24-133.7V32h-8l-.2 116.9c0 6.1-2.9 11.1-9 11.1-5.7 0-8-4.3-8.6-9.9-.1-.4 0-.8 0-1.2L259.9 32h-8l-9 117-.1 1.1c-.6 5.6-3.7 9.9-9.5 9.9-6.1 0-9.1-5-9.1-11.1L223.8 32h-8C207 73 192 122.9 192 166.1c0 25.7 14.6 48.1 36.7 58.2 11.2 5.1 11.3 10.3 11.3 10.3s-16 201.7-16 213.1c0 11.4 4 18.5 9.5 24s14.2 8.2 22.4 8.2h.4c8.2 0 16.8-2.7 22.4-8.2 5.5-5.5 9.3-10.9 9.3-24s-16-213.1-16-213.1-1-5 11.4-10.6c21.6-9.8 36.6-32.2 36.6-58z"/></symbol><symbol id="gear-a" viewBox="0 0 512 512"><path d="M411.1 256c0-23.9 14.8-42.8 36.9-55.8-4-13.3-9.3-26.2-15.8-38.2-24.9 6.5-45-3.2-62-20.2-16.9-16.9-22.1-37.1-15.6-62-12-6.5-24.8-11.8-38.2-15.8-13 22.2-36.4 36.9-60.4 36.9-23.9 0-47.4-14.7-60.4-36.9-13.4 4-26.2 9.3-38.2 15.8 6.5 24.9 1.3 45-15.6 62-16.9 16.9-37.1 26.7-61.9 20.2-6.6 12-11.9 24.8-15.9 38.2 22.2 13 37 31.9 37 55.8s-14.8 47.4-37 60.4c4 13.4 9.3 26.2 15.8 38.2 24.9-6.5 45-1.3 61.9 15.6 17 16.9 22.1 37.1 15.6 62 12.1 6.5 24.8 11.8 38.2 15.8 13-22.2 36.5-36.9 60.4-36.9s47.4 14.7 60.4 36.9c13.4-4 26.2-9.3 38.2-15.8-6.5-24.9-1.3-45 15.6-62 16.9-16.9 37.1-26.7 62-20.2 6.5-12.1 11.8-24.9 15.8-38.2-22.1-13-36.8-31.9-36.8-55.8zM256 354.3c-54.2 0-98.3-44-98.3-98.3s44-98.3 98.3-98.3 98.3 44 98.3 98.3-44 98.3-98.3 98.3z"/></symbol><symbol id="ios-flower" viewBox="0 0 512 512"><path d="M395.057 228.247c-28.651 0-64.502 7.35-92.66 14.518a47.921 47.921 0 0 0-4.001-9.817c24.97-14.84 55.487-34.98 75.733-55.224 39.547-39.547 52.023-68.458 40.44-80.042-11.584-11.583-40.495.893-80.042 40.44-20.225 20.225-40.343 50.698-55.178 75.654a47.96 47.96 0 0 0-9.822-4.089c7.156-28.133 14.475-63.897 14.475-92.492C284.002 61.266 272.382 32 256 32s-28.002 29.266-28.002 85.194c0 28.595 7.319 64.359 14.475 92.492a47.96 47.96 0 0 0-9.822 4.089c-14.835-24.956-34.953-55.43-55.176-75.653-39.548-39.547-68.458-52.024-80.042-40.44-11.584 11.583.894 40.494 40.44 80.041 20.246 20.244 50.762 40.384 75.732 55.224a47.921 47.921 0 0 0-4.001 9.817c-28.158-7.168-64.008-14.518-92.659-14.518C61.016 228.247 32 239.618 32 256s29.016 28.252 84.944 28.252c28.697 0 64.613-7.371 92.792-14.551a47.982 47.982 0 0 0 4.083 9.724c-25.009 14.852-55.645 35.049-75.946 55.351-39.547 39.548-52.023 68.459-40.44 80.043 11.584 11.584 40.495-.895 80.042-40.441 20.323-20.323 40.542-51.001 55.398-76.024a47.969 47.969 0 0 0 9.718 3.995c-7.192 28.203-14.592 64.207-14.592 92.959 0 55.929 11.62 84.693 28.002 84.693s28.002-28.766 28.002-84.693c0-28.752-7.4-64.756-14.592-92.959a47.969 47.969 0 0 0 9.718-3.995c14.855 25.023 35.073 55.701 55.399 76.025 39.547 39.547 68.457 52.024 80.041 40.44s-.894-40.495-40.439-80.043c-20.304-20.302-50.938-40.499-75.947-55.351a47.982 47.982 0 0 0 4.083-9.724c28.18 7.18 64.096 14.551 92.792 14.551 55.929 0 84.943-11.62 84.943-28.002s-29.017-28.003-84.944-28.003z"/><path d="M296.467 353.945s7.031 41.059 1.854 75.946c11.678 21.779 26.139 35.253 36.643 35.253 1.749 0 3.432-.324 5.042-.976 11.874-4.797 14.385-24.984 4.855-58.491-24.53-17.673-48.394-51.732-48.394-51.732zm-80.97-195.625s-7.747-40.82-1.818-75.712c-13.292-23.51-26.139-35.255-36.644-35.255-1.749 0-3.431.325-5.042.976-11.868 4.795-14.497 23.211-4.87 58.441 21.252 15.98 48.374 51.55 48.374 51.55zm-57.191 138.397s-41.308 6.119-75.949 1.852c-27.422 15.505-38.836 30.402-34.277 41.687 2.806 6.944 10.913 10.675 23.842 10.675 9.182 0 22.434-1.559 34.672-5.826 17.405-23.935 51.712-48.388 51.712-48.388zm195.417-80.938s40.778-7.28 75.918-1.849c27.424-15.504 38.838-30.402 34.279-41.685-2.806-6.945-10.914-10.675-23.844-10.675-9.178 0-21.4 1.715-34.654 5.822-18.088 23.774-51.699 48.387-51.699 48.387zM163.135 408.98c-8.42 30.34-5.956 48.938 5.244 53.69a13.372 13.372 0 0 0 5.275 1.066c11.107 0 24.698-13.124 39.528-39.015-4.184-32.22 2.351-70.779 2.351-70.779s-21.534 31.394-52.398 55.038zM348.77 103.87c8.397-31.87 6.096-49.271-5.147-54.044a13.392 13.392 0 0 0-5.274-1.066c-11.105 0-26.207 14.287-39.527 39.013 4.514 22.894-2.393 71.053-2.393 71.053s23.238-34.326 52.341-54.956zM87.524 213.432c29.726-3.932 70.688 2.336 70.688 2.336S121 187.067 103.209 163.367C93 159.5 80.717 158.366 72.457 158.366c-12.267 0-20.042 3.573-22.881 10.261-5.004 11.792 9.97 29.985 37.948 44.805zm336.953 85.634c-25.307 5.6-70.78-2.35-70.78-2.35s34.638 25.615 55.014 52.393c11.959 4.223 22.555 5.022 30.833 5.022 12.266 0 20.041-3.573 22.88-10.261 5.004-11.79-8.141-28.069-37.947-44.804z"/></symbol><symbol id="ios-sunny" viewBox="0 0 512 512"><style>.st0{fill:#010101}</style><path class="st0" d="M247 96h18v56h-18zm0 260h18v60h-18zm113-109h56v18h-56zm-264 0h60v18H96z"/><path transform="rotate(134.999 347.405 341.317)" class="st0" d="M339 317.4h16.8v47.8H339z"/><path transform="rotate(134.999 170.67 164.582)" class="st0" d="M162.2 140.7H179v47.9h-16.8z"/><path transform="rotate(45.001 347.406 164.562)" class="st0" d="M339 140.7h16.8v47.8H339z"/><path transform="rotate(45.009 170.67 341.27)" class="st0" d="M162.2 317.4H179v47.9h-16.8z"/><path class="st0" d="M256 331.8c-41.8 0-75.8-34-75.8-75.8s34-75.8 75.8-75.8 75.8 34 75.8 75.8-34 75.8-75.8 75.8z"/></symbol><symbol id="knife" viewBox="0 0 512 512"><path d="M285.7 32c-3.3 0-6 1.4-8 3.8C259 58.7 224 116.1 224 250.1c0 39.2 33 39.2 32 69.4v.4c-2 47.1-14.9 111.1-16 130.3-.4 15.2 9.7 29.8 24.1 29.8h.4c14.4 0 23.5-14.4 23.5-29.6V38.3c0-5-.5-6.3-2.3-6.3z"/></symbol><symbol id="model-s" viewBox="0 0 512 512"><path d="M508.8 390.9c-.6 4.1-1.6 8.1-3.1 11.2-2.7 5.5-5.3 6-15.5 5.5-13.2-.6-32.1 0-52.1.8 0 5.5.2 8.1.2 8.1 1.3 15.1 8.1 15.6 10.8 15.6h43c3.8 0 7.3 0 10-1.8 3.5-2.3 5-9 6.3-20.7.2-1.7.3-3.9.4-6.5v-.1c0-.8.1-1.8.1-2.9V399c0-2.7 0-5.7-.1-8.1zM3 390.9c.6 4.1 1.6 8.1 3.1 11.2 2.7 5.5 5.3 6 15.5 5.5 13.2-.6 32.1 0 52.1.8 0 5.5-.2 8.1-.2 8.1-1.3 15.1-8.1 15.6-10.8 15.6h-43c-3.8 0-7 0-10-1.8-3.6-2.1-5-9-6.3-20.7-.2-1.7-.3-3.9-.4-6.5v-.1c0-.8-.1-1.8-.1-2.9V399c.1-2.7.1-5.7.1-8.1z"/><path d="M512 296.6c0-30.7-4-60.7-5.6-64-1.2-2.4-8.9-8.7-26.4-20.6-17.7-12.1-17.3-10.3-20.5-18.2 2.9-.9 5.7-2.6 7.4-2.8 3.8-.4 4 3.2 11.9 3.2s25-2.1 28.5-5.6c3.5-3.5 4.6-4.7 4.6-7.8s-1.8-9.5-5.2-13.3-17.9-5.7-26.4-6.8-9.7 0-11.9 1.4c-3.5 2.2-3.7 22.3-3.7 22.3l-8.3.2c-5.4-13.3-12.9-40.1-24.6-61.2-12.8-23-26.2-30.2-31.8-32-5.5-1.7-10.5-2.9-48-6.7-38.3-4-68.8-4.5-96-4.5s-57.7.6-96 4.5c-37.5 3.9-42.5 5-48 6.7-5.5 1.7-19 9-31.8 32-11.7 21.1-19.2 47.9-24.6 61.2l-8.3-.2s-.1-20.1-3.7-22.3c-2.2-1.4-3.4-2.6-11.9-1.4s-23 3-26.4 6.8S.1 177.7.1 180.8s1.1 4.4 4.6 7.8c3.5 3.5 20.6 5.6 28.5 5.6s8.1-3.6 11.9-3.2c1.7.2 4.6 1.9 7.4 2.8-3.3 7.9-2.8 6.1-20.5 18.2-17.5 12-25.3 18.2-26.4 20.6-1.6 3.3-5.6 33.3-5.6 64s2.2 58.3 2.2 68.1c0 4.1 0 11.3.9 18.2.6 4.1 1.5 8.1 3.1 11.2 2.7 5.5 5.2 6 15.5 5.5 13.2-.6 32.3 0 52 .8 13.2.5 26.7 1 38.7 1.3 30 .6 21.2-4.4 34-4.2 12.8.2 63.3 2.3 109.5 2.3s96.8-2.1 109.5-2.3c12.8-.2 4 4.8 34 4.2 12-.2 25.5-.8 38.7-1.3 19.7-.7 38.9-1.4 52-.8 10.3.5 12.8 0 15.5-5.5 1.5-3.1 2.5-7.1 3.1-11.2 1-6.9.9-14.1.9-18.2.2-9.7 2.4-37.4 2.4-68.1zM86.2 145.2c4.8-11.2 19.2-33.7 26.2-37.7 1.7-1 16.6-5.7 53.9-8.2 34.3-2.3 72.2-3.2 89.8-3.2s55.5.9 89.8 3.2c37.2 2.5 52.3 7.1 53.9 8.2 9 6.2 21.4 26.5 26.2 37.7 4.8 11.2 11.2 33.2 10 36.2-1.2 3 1.2 4.5-15 3.2-16.1-1.2-117.2-2.5-164.8-2.5-47.5 0-148.6 1.3-164.8 2.5-16.2 1.2-13.8-.2-15-3.2-1.4-3 5-24.9 9.8-36.2zM123 270.4c-7.2 1.8-11.5 5.7-20.5 5.6-9 0-33.3-4.1-38.5-4.3-5.2-.2-9.8 3.5-12.5 4.2s-8-1.2-16-3.7-12.7-1.8-15.3-12.7c-2.7-10.8 0-26.3 0-26.3 17.3-.8 34 .8 65.3 9.6 31.3 8.8 48.7 25.7 48.7 25.7s-4 .1-11.2 1.9zm235.2 78.8c-14.3 1.9-74.2 2.4-102.2 2.4s-87.9-.6-102.2-2.4c-14.6-1.9-33.6-19.4-20.5-33.3 17.7-18.9 14.4-18.3 54.6-23.5 34.8-4.5 61.2-4.7 68.1-4.7 6.8 0 33.3.3 68.1 4.7 40.2 5.2 36.9 4.6 54.6 23.5 13.1 13.9-5.9 31.4-20.5 33.3zm133.6-89.6c-2.7 10.8-7.3 10.2-15.3 12.7s-13.3 4.3-16 3.7-7.3-4.3-12.5-4.2c-5.2.2-29.5 4.3-38.5 4.3s-13.3-3.8-20.5-5.6c-7.2-1.8-11.2-1.8-11.2-1.8s17.3-17 48.7-25.7c31.3-8.8 48-10.4 65.3-9.6 0-.2 2.7 15.3 0 26.2z"/></symbol><symbol id="swimmer" viewBox="0 0 240 240"><path fill="#4298e2" d="M240 181.157c-11.124 0-16.963-4.868-21.65-8.778-3.987-3.323-6.618-5.519-12.639-5.519-6.018 0-8.651 2.195-12.636 5.519-4.69 3.91-10.526 8.778-21.653 8.778-11.124 0-16.963-4.868-21.65-8.779-3.984-3.322-6.618-5.518-12.636-5.518s-8.648 2.195-12.633 5.518c-4.69 3.911-10.526 8.779-21.653 8.779-11.124 0-16.96-4.868-21.65-8.779-3.984-3.322-6.615-5.518-12.633-5.518s-8.648 2.195-12.633 5.518c-4.69 3.911-10.526 8.779-21.653 8.779-11.124 0-16.96-4.868-21.647-8.779C8.648 169.056 6.018 166.86 0 166.86v-13.919c11.124 0 16.963 4.868 21.65 8.78 3.984 3.322 6.615 5.517 12.63 5.517 6.018 0 8.651-2.194 12.636-5.517 4.688-3.912 10.526-8.78 21.65-8.78s16.96 4.868 21.65 8.78c3.984 3.322 6.615 5.517 12.633 5.517s8.651-2.194 12.636-5.517c4.69-3.912 10.526-8.78 21.65-8.78s16.963 4.868 21.653 8.78c3.984 3.322 6.615 5.517 12.633 5.517 6.021 0 8.651-2.194 12.636-5.518 4.69-3.911 10.529-8.779 21.653-8.779 11.127 0 16.963 4.868 21.653 8.779 3.984 3.323 6.618 5.518 12.636 5.518v13.919zM188.701 72c-16.729 0-30.29 13.466-30.29 30.073 0 16.609 13.562 30.076 30.29 30.076 16.731 0 30.293-13.467 30.293-30.076 0-16.607-13.561-30.073-30.293-30.073zm-78.618 35.364l14.927 8.378-39.492 31.103c1.693 1.186 3.196 2.431 4.594 3.597 4.148 3.459 6.888 5.744 13.154 5.744 6.264 0 9.006-2.285 13.154-5.744 4.881-4.073 10.96-9.142 22.541-9.142 11.584 0 17.66 5.068 22.544 9.142 1.28 1.068 2.429 2.023 3.586 2.836l4.228-7.776-25.412-41.08-32.279-14.185-47.871 22.595 7.711 9.844 38.615-15.312zM240 194.082c-6.018 0-8.651-2.195-12.636-5.519-4.69-3.911-10.526-8.779-21.653-8.779-11.124 0-16.963 4.868-21.653 8.779-3.984 3.323-6.615 5.519-12.636 5.519-6.018 0-8.648-2.195-12.633-5.518-4.69-3.912-10.529-8.78-21.653-8.78s-16.96 4.868-21.65 8.78c-3.984 3.322-6.618 5.518-12.636 5.518s-8.648-2.195-12.633-5.518c-4.69-3.912-10.526-8.78-21.65-8.78s-16.963 4.868-21.65 8.78c-3.984 3.322-6.618 5.518-12.636 5.518-6.015 0-8.646-2.195-12.63-5.518-4.688-3.912-10.526-8.78-21.65-8.78v13.919c6.018 0 8.648 2.195 12.633 5.518C17.32 203.132 23.156 208 34.28 208c11.127 0 16.963-4.868 21.653-8.779 3.984-3.322 6.615-5.518 12.633-5.518s8.648 2.195 12.633 5.518c4.69 3.911 10.526 8.779 21.65 8.779 11.127 0 16.963-4.868 21.653-8.779 3.984-3.322 6.615-5.518 12.633-5.518s8.651 2.195 12.636 5.518c4.688 3.911 10.526 8.779 21.65 8.779 11.127 0 16.963-4.868 21.653-8.778 3.984-3.323 6.618-5.519 12.636-5.519 6.021 0 8.651 2.195 12.639 5.519 4.688 3.91 10.526 8.778 21.65 8.778v-13.918z"/></symbol><symbol id="wifi" viewBox="0 0 512 512"><path d="M256.1 96c-79.9 0-155.7 29.9-213.9 84.1L32 189.6l9.9 9.8 32.3 32 9.3 9.2 9.6-8.8c44.5-40.9 102.3-63.5 162.8-63.5 60.5 0 118.4 22.6 162.8 63.5l9.6 8.8 9.3-9.2 32.3-32 9.9-9.8-10.2-9.5C411.6 125.9 335.7 96 256.1 96z"/><path d="M397.4 256.4c-38.8-35.1-88.9-54.4-141.1-54.4h-8.9l-.1.2c-49.2 2-96 21.1-132.6 54.2l-10.5 9.5 10.1 10 32.7 32.4 9.1 9 9.6-8.4c25.3-22.2 57.4-34.5 90.3-34.5 33.1 0 65.2 12.3 90.5 34.5l9.6 8.4 9.1-9 32.7-32.4 10.1-10-10.6-9.5z"/><path d="M256.2 416l9.6-9.5 52.8-52.2 10.6-10.5-11.6-9.5c-15.4-11.4-32.4-20-61.5-20-29 0-44.9 9.4-61.5 20l-11.5 9.5 10.6 10.5 52.8 52.2 9.7 9.5z"/></symbol><symbol id="wineglass" viewBox="0 0 512 512"><path d="M294.9 295.4c11-4.1 18-6.9 26.2-11.7 12-6.9 22.8-15.8 31.9-26.1 20.4-22.9 31-51.1 31-86.1 0-49.9-3.7-101.1-8.1-114.7C371.5 43 362.4 32 345.2 32H166.7c-17.1 0-26.2 11.1-30.6 24.6-4.4 13.5-8.1 64.9-8.1 114.8 0 35.1 10.6 63.2 30.9 86.1 9.1 10.3 19.9 19.1 31.8 26 8.2 4.8 15.1 7.8 26 11.7S239 302.7 239 327v94.2c0 10.7-2.9 19-11.1 24.8-2.8 2.1-6.3 4.3-14.3 6.5-31.5 8.6-46.9 15.6-49.2 17.2-2 1.4-4.5 3.6-4.5 7.1 0 0 13.8 3.1 96.2 3.1s96-3.1 96-3.1c0-3.5-2.5-5.7-4.6-7.1-2.3-1.6-17.8-8.6-49.4-17.2-8-2.2-12.2-4.4-15.1-6.5-8-5.7-12-14-12-24.7v-94.2c0-24 12.9-27.7 23.9-31.7zm-39-25.1c-25.4 0-48.5-10-65.5-26.3-2.7-2.4-5.2-5-7.6-7.7-15.6-17.5-22.4-36.7-23.1-64.8-.7-28.2-.1-72.5 7.3-107.5h177c6.3 24 9.1 76.8 7.7 107.2-1.4 30.5-7.2 47.3-22.8 64.9-2 2.2-3.9 4.3-6.1 6.4-17.1 17.2-40.8 27.8-66.9 27.8z"/><path d="M336.2 170.6c0-7.5-.1-31.9-1.3-52.6-.5-8.4-1.2-16-2.1-22h-153c-.9 3-1.8 11.6-2.5 22-1.3 18.9-2.1 43.9-1.5 52.9.9 13.8 1.5 20.6 4.5 29.4 3.1 9.1 8 17.3 14.6 24.7 2 2.3 4.1 4.4 6.4 6.4 14.2 13.6 33.5 22 54.7 22 21.8 0 41.5-8.8 55.9-23.1 1.8-1.7 3.5-3.5 5.2-5.3 6.6-7.4 11.4-15.5 14.5-24.6 3.1-9 4.6-19.3 4.6-29.8zM320 179c0 5-3.9 8.1-8.3 8.1-1.6 0-3-.5-4.3-1.3-2.2-1.4-3.5-3.9-3.5-6.7v-26c0-4.4 3.6-8 8-8s8 3.6 8 8V179zm-1.1-47.2c-1.2 1.8-3 3-5.1 3.5-2.1.4-4.3 0-6-1.1-1.8-1.2-3-3-3.5-5.1-.4-2.1 0-4.3 1.1-6 1.2-1.8 3-3 5.1-3.5 2.1-.4 4.3 0 6 1.1 1.8 1.2 3 3 3.5 5.1.5 2 .1 4.2-1.1 6z"/></symbol></svg>